Coordinates
version=1
nRows=21
nColumns=12
inDegrees=yes

Units are S.I. units (second, meters, Newtons, ...)
Angles are in degrees

endheader
time	SC_y	SC_z	SC_x	AC_y	AC_z	AC_x	GH_y	GH_z	GH_yy	EL_x	PS_y
       0.0              -22.49          27.78          8.266          43.29         -18.55          5.733          16.85          84.54          48.06          116.0          47.72
    0.0167              -22.49          27.78          8.265          43.29         -18.54          5.731          16.84          84.54          48.07          115.9          47.72
    0.0334              -22.49          27.78          8.265          43.29         -18.54          5.729          16.83          84.55          48.09          115.9          47.73
   0.05009               -22.5          27.78          8.264           43.3         -18.54          5.728          16.82          84.55          48.11          115.9          47.73
   0.06679               -22.5          27.78          8.264           43.3         -18.54          5.726          16.81          84.55          48.13          115.9          47.73
   0.08349               -22.5          27.78          8.263           43.3         -18.54          5.724           16.8          84.55          48.15          115.9          47.73
    0.1002               -22.5          27.77          8.263          43.31         -18.54          5.722          16.79          84.55          48.17          115.8          47.73
    0.1169               -22.5          27.77          8.262          43.31         -18.54          5.719          16.77          84.55          48.19          115.8          47.73
    0.1336               -22.5          27.77          8.262          43.32         -18.53          5.717          16.76          84.55          48.22          115.8          47.74
    0.1503               -22.5          27.77          8.261          43.32         -18.53          5.714          16.75          84.55          48.24          115.8          47.74
     0.167              -22.51          27.77          8.261          43.33         -18.53          5.712          16.73          84.55          48.27          115.7          47.74
    0.1837              -22.51          27.77           8.26          43.33         -18.53          5.709          16.71          84.55           48.3          115.7          47.74
    0.2004              -22.51          27.77          8.259          43.34         -18.53          5.705           16.7          84.55          48.33          115.7          47.75
    0.2171              -22.51          27.77          8.258          43.35         -18.52          5.702          16.68          84.55          48.37          115.6          47.75
    0.2338              -22.52          27.77          8.257          43.35         -18.52          5.698          16.65          84.55          48.41          115.6          47.75
    0.2505              -22.52          27.77          8.256          43.36         -18.52          5.694          16.63          84.55          48.45          115.6          47.76
    0.2672              -22.52          27.77          8.255          43.37         -18.51           5.69          16.61          84.56          48.49          115.5          47.76
    0.2839              -22.52          27.77          8.254          43.38         -18.51          5.685          16.58          84.56          48.54          115.5          47.76
    0.3006              -22.53          27.76          8.253          43.39         -18.51          5.679          16.55          84.56          48.59          115.4          47.77
    0.3173              -22.53          27.76          8.251           43.4          -18.5          5.674          16.51          84.56          48.65          115.3          47.77
     0.334              -22.53          27.76           8.25          43.42          -18.5          5.667          16.48          84.56          48.72          115.3          47.78
